<?xml version="1.0" encoding="UTF-8" standalone="no"?>
<!DOCTYPE svg PUBLIC "-//W3C//DTD SVG 1.1//EN"
 "http://www.w3.org/Graphics/SVG/1.1/DTD/svg11.dtd">
<!-- Generated by graphviz version 13.1.1 (20250719.2154)
 -->
<!-- Title: RedBlackTree Pages: 1 -->
<svg width="151pt" height="243pt"
 viewBox="0.00 0.00 151.00 243.00" xmlns="http://www.w3.org/2000/svg" xmlns:xlink="http://www.w3.org/1999/xlink">
<g id="graph0" class="graph" transform="scale(1 1) rotate(0) translate(4 239.35)">
<title>RedBlackTree</title>
<polygon fill="white" stroke="none" points="-4,4 -4,-239.35 146.6,-239.35 146.6,4 -4,4"/>
<!-- 0x2a433e528c0 -->
<g id="node1" class="node">
<title>0x2a433e528c0</title>
<ellipse fill="black" stroke="black" cx="70.8" cy="-214.73" rx="20.63" ry="20.63"/>
<text xml:space="preserve" text-anchor="middle" x="70.8" y="-209.3" font-family="Arial" font-size="14.00" fill="white">20</text>
</g>
<!-- 0x2a433e525f0 -->
<g id="node2" class="node">
<title>0x2a433e525f0</title>
<ellipse fill="black" stroke="black" cx="41.8" cy="-137.48" rx="20.63" ry="20.63"/>
<text xml:space="preserve" text-anchor="middle" x="41.8" y="-132.05" font-family="Arial" font-size="14.00" fill="white">10</text>
</g>
<!-- 0x2a433e528c0&#45;&gt;0x2a433e525f0 -->
<g id="edge1" class="edge">
<title>0x2a433e528c0&#45;&gt;0x2a433e525f0</title>
<path fill="none" stroke="black" d="M63.63,-195.12C60.46,-186.89 56.65,-177.02 53.11,-167.83"/>
<polygon fill="black" stroke="black" points="56.39,-166.61 49.53,-158.54 49.86,-169.13 56.39,-166.61"/>
</g>
<!-- 0x2a433e52590 -->
<g id="node7" class="node">
<title>0x2a433e52590</title>
<ellipse fill="black" stroke="black" cx="100.8" cy="-137.48" rx="20.63" ry="20.63"/>
<text xml:space="preserve" text-anchor="middle" x="100.8" y="-132.05" font-family="Arial" font-size="14.00" fill="white">30</text>
</g>
<!-- 0x2a433e528c0&#45;&gt;0x2a433e52590 -->
<g id="edge6" class="edge">
<title>0x2a433e528c0&#45;&gt;0x2a433e52590</title>
<path fill="none" stroke="black" d="M78.22,-195.12C81.53,-186.8 85.52,-176.8 89.22,-167.53"/>
<polygon fill="black" stroke="black" points="92.35,-169.11 92.81,-158.53 85.85,-166.52 92.35,-169.11"/>
</g>
<!-- nil0 -->
<g id="node3" class="node">
<title>nil0</title>
<ellipse fill="black" stroke="black" cx="1.8" cy="-60.23" rx="1.8" ry="1.8"/>
</g>
<!-- 0x2a433e525f0&#45;&gt;nil0 -->
<g id="edge2" class="edge">
<title>0x2a433e525f0&#45;&gt;nil0</title>
<path fill="none" stroke="black" d="M32.24,-118.99C26.29,-108.07 18.53,-93.68 11.8,-80.85 10.36,-78.1 8.82,-75.12 7.4,-72.33"/>
<polygon fill="black" stroke="black" points="10.65,-70.99 3.02,-63.64 4.4,-74.15 10.65,-70.99"/>
</g>
<!-- 0x2a433e527a0 -->
<g id="node4" class="node">
<title>0x2a433e527a0</title>
<ellipse fill="red" stroke="black" cx="41.8" cy="-60.23" rx="20.63" ry="20.63"/>
<text xml:space="preserve" text-anchor="middle" x="41.8" y="-54.8" font-family="Arial" font-size="14.00">15</text>
</g>
<!-- 0x2a433e525f0&#45;&gt;0x2a433e527a0 -->
<g id="edge3" class="edge">
<title>0x2a433e525f0&#45;&gt;0x2a433e527a0</title>
<path fill="none" stroke="black" d="M41.8,-116.7C41.8,-109.33 41.8,-100.77 41.8,-92.61"/>
<polygon fill="black" stroke="black" points="45.3,-92.64 41.8,-82.64 38.3,-92.64 45.3,-92.64"/>
</g>
<!-- nil1 -->
<g id="node5" class="node">
<title>nil1</title>
<ellipse fill="black" stroke="black" cx="30.8" cy="-1.8" rx="1.8" ry="1.8"/>
</g>
<!-- 0x2a433e527a0&#45;&gt;nil1 -->
<g id="edge4" class="edge">
<title>0x2a433e527a0&#45;&gt;nil1</title>
<path fill="none" stroke="black" d="M37.95,-39.49C36.38,-31.41 34.6,-22.3 33.21,-15.18"/>
<polygon fill="black" stroke="black" points="36.66,-14.57 31.31,-5.43 29.79,-15.91 36.66,-14.57"/>
</g>
<!-- nil1000 -->
<g id="node6" class="node">
<title>nil1000</title>
<ellipse fill="black" stroke="black" cx="52.8" cy="-1.8" rx="1.8" ry="1.8"/>
</g>
<!-- 0x2a433e527a0&#45;&gt;nil1000 -->
<g id="edge5" class="edge">
<title>0x2a433e527a0&#45;&gt;nil1000</title>
<path fill="none" stroke="black" d="M45.65,-39.49C47.22,-31.41 49,-22.3 50.39,-15.18"/>
<polygon fill="black" stroke="black" points="53.81,-15.91 52.29,-5.43 46.94,-14.57 53.81,-15.91"/>
</g>
<!-- 0x2a433e526e0 -->
<g id="node8" class="node">
<title>0x2a433e526e0</title>
<ellipse fill="red" stroke="black" cx="100.8" cy="-60.23" rx="20.63" ry="20.63"/>
<text xml:space="preserve" text-anchor="middle" x="100.8" y="-54.8" font-family="Arial" font-size="14.00">25</text>
</g>
<!-- 0x2a433e52590&#45;&gt;0x2a433e526e0 -->
<g id="edge7" class="edge">
<title>0x2a433e52590&#45;&gt;0x2a433e526e0</title>
<path fill="none" stroke="black" d="M100.8,-116.7C100.8,-109.33 100.8,-100.77 100.8,-92.61"/>
<polygon fill="black" stroke="black" points="104.3,-92.64 100.8,-82.64 97.3,-92.64 104.3,-92.64"/>
</g>
<!-- nil1002 -->
<g id="node11" class="node">
<title>nil1002</title>
<ellipse fill="black" stroke="black" cx="140.8" cy="-60.23" rx="1.8" ry="1.8"/>
</g>
<!-- 0x2a433e52590&#45;&gt;nil1002 -->
<g id="edge10" class="edge">
<title>0x2a433e52590&#45;&gt;nil1002</title>
<path fill="none" stroke="black" d="M110.36,-118.99C116.31,-108.07 124.07,-93.68 130.8,-80.85 132.24,-78.1 133.78,-75.12 135.2,-72.33"/>
<polygon fill="black" stroke="black" points="138.2,-74.15 139.58,-63.64 131.95,-70.99 138.2,-74.15"/>
</g>
<!-- nil2 -->
<g id="node9" class="node">
<title>nil2</title>
<ellipse fill="black" stroke="black" cx="89.8" cy="-1.8" rx="1.8" ry="1.8"/>
</g>
<!-- 0x2a433e526e0&#45;&gt;nil2 -->
<g id="edge8" class="edge">
<title>0x2a433e526e0&#45;&gt;nil2</title>
<path fill="none" stroke="black" d="M96.95,-39.49C95.38,-31.41 93.6,-22.3 92.21,-15.18"/>
<polygon fill="black" stroke="black" points="95.66,-14.57 90.31,-5.43 88.79,-15.91 95.66,-14.57"/>
</g>
<!-- nil1001 -->
<g id="node10" class="node">
<title>nil1001</title>
<ellipse fill="black" stroke="black" cx="111.8" cy="-1.8" rx="1.8" ry="1.8"/>
</g>
<!-- 0x2a433e526e0&#45;&gt;nil1001 -->
<g id="edge9" class="edge">
<title>0x2a433e526e0&#45;&gt;nil1001</title>
<path fill="none" stroke="black" d="M104.65,-39.49C106.22,-31.41 108,-22.3 109.39,-15.18"/>
<polygon fill="black" stroke="black" points="112.81,-15.91 111.29,-5.43 105.94,-14.57 112.81,-15.91"/>
</g>
</g>
</svg>
